<?xml version="1.0" standalone="no"?>
<!DOCTYPE svg PUBLIC "-//W3C//DTD SVG 20010904//EN"
 "http://www.w3.org/TR/2001/REC-SVG-20010904/DTD/svg10.dtd">
<svg version="1.0" xmlns="http://www.w3.org/2000/svg"
 width="260.000000pt" height="280.000000pt" viewBox="0 0 260.000000 280.000000"
 preserveAspectRatio="xMidYMid meet">

<g transform="translate(0.000000,280.000000) scale(0.100000,-0.100000)"
fill="#000000" stroke="none">
<path d="M1270 2215 l0 -125 -26 0 c-44 0 -146 -30 -212 -62 -104 -51 -236
-188 -272 -282 l-10 -27 43 30 c24 16 62 54 85 85 75 98 217 181 350 202 l43
7 -3 -54 -3 -54 -45 -7 c-25 -4 -65 -15 -89 -24 -65 -25 -29 -37 39 -14 81 28
100 27 100 -10 0 -27 3 -30 30 -30 27 0 30 3 30 31 0 31 0 32 43 25 119 -19
245 -115 297 -229 38 -80 49 -147 26 -147 -11 0 -16 -9 -16 -30 0 -21 5 -30
16 -30 14 0 15 -7 10 -37 -16 -86 -18 -118 -7 -103 10 14 20 46 35 113 6 25
10 27 57 27 l50 0 -7 -47 c-3 -27 -16 -75 -28 -108 -17 -46 -19 -66 -12 -87 5
-16 13 -28 17 -28 13 0 68 157 75 214 l7 56 123 0 124 0 0 30 0 30 -125 0
-125 0 0 26 c0 95 -69 248 -151 338 -98 107 -228 177 -354 192 l-55 7 0 123 0
124 -30 0 -30 0 0 -125z m165 -195 c211 -54 366 -228 400 -448 l7 -43 -53 3
-53 3 -11 55 c-31 159 -172 304 -325 334 -71 15 -70 14 -70 67 0 57 -3 57 105
29z"/>
<path d="M970 1851 c-5 -11 -10 -26 -10 -35 0 -8 -13 -17 -30 -21 -16 -4 -46
-18 -67 -32 -21 -15 -57 -40 -81 -56 l-43 -29 33 -29 c50 -44 103 -69 145 -69
49 -1 114 -30 141 -65 27 -34 23 -41 -27 -49 -22 -3 -41 -13 -45 -22 -7 -18
-8 -54 -2 -54 2 0 13 -3 23 -6 14 -6 16 -4 6 6 -16 17 1 50 25 50 10 0 34 -11
54 -25 41 -28 58 -31 76 -13 17 17 26 3 13 -20 -20 -37 -13 -68 22 -98 17 -16
33 -33 34 -38 2 -6 -29 -10 -69 -10 -52 -1 -72 -5 -76 -15 -3 -10 1 -12 17 -8
15 4 21 2 18 -6 -7 -19 372 -5 446 17 79 22 104 20 132 -9 18 -17 25 -35 25
-62 0 -96 -63 -117 -333 -112 -168 4 -184 3 -136 -8 30 -7 115 -18 189 -24
167 -15 234 -4 288 46 32 28 36 39 40 92 4 56 2 62 -28 96 -17 20 -40 39 -51
42 -32 10 -41 42 -49 169 -8 141 -27 189 -91 236 -71 51 -138 70 -248 70 -85
0 -107 4 -155 26 -31 14 -54 29 -51 34 3 5 -2 16 -11 25 -15 14 -19 14 -40 1
-21 -15 -23 -14 -29 4 -8 26 -41 26 -55 1z"/>
<path d="M716 1609 c-3 -17 -6 -42 -6 -55 0 -24 0 -24 -125 -24 l-125 0 0 -30
0 -30 125 0 125 0 0 -26 c0 -44 30 -146 63 -214 43 -89 168 -214 257 -257 68
-33 170 -63 214 -63 l26 0 0 -125 0 -125 30 0 30 0 0 124 0 123 48 6 c26 3 78
16 116 28 66 22 68 23 40 32 -28 8 -120 3 -176 -9 -21 -5 -28 -2 -28 9 0 15
-20 27 -46 27 -8 0 -14 -9 -14 -21 0 -19 -4 -20 -42 -14 -148 25 -276 101
-358 213 -50 68 -94 171 -105 250 l-7 42 50 0 c54 0 53 1 68 -70 23 -115 118
-234 232 -291 65 -32 71 -33 192 -34 123 0 127 1 192 33 36 19 81 50 99 69 42
42 20 36 -65 -19 -57 -37 -139 -68 -178 -68 -13 0 -18 8 -18 30 0 27 -3 30
-30 30 -27 0 -30 -3 -30 -31 0 -31 0 -32 -42 -25 -65 10 -167 64 -218 116 -52
51 -106 153 -116 218 -7 42 -6 42 25 42 28 0 31 3 31 30 0 27 -3 30 -30 30
-20 0 -30 5 -30 15 0 8 -5 15 -10 15 -6 0 -13 -7 -16 -15 -4 -11 -21 -15 -56
-15 l-49 0 6 44 c6 38 4 46 -13 55 -28 15 -29 15 -36 -20z"/>
<path d="M1669 1104 c-23 -25 -23 -26 -2 -15 23 12 38 29 31 37 -3 2 -15 -8
-29 -22z"/>
<path d="M633 95 c0 -27 2 -38 4 -22 2 15 8 27 13 27 5 0 11 -12 13 -27 4 -26
4 -26 6 5 1 22 -4 32 -13 32 -8 0 -17 8 -19 18 -3 9 -5 -5 -4 -33z"/>
<path d="M1132 95 c0 -27 2 -43 5 -35 3 8 13 24 22 35 15 18 15 19 -1 7 -14
-12 -17 -10 -21 15 -2 16 -4 6 -5 -22z"/>
<path d="M750 120 c-4 -25 1 -54 10 -63 4 -5 5 3 3 17 -4 19 -1 26 11 26 9 0
16 -8 16 -19 0 -11 4 -22 9 -25 5 -4 7 3 4 15 -3 12 -1 24 4 28 7 4 6 11 -3
19 -8 7 -14 8 -14 2 0 -14 -27 -13 -33 3 -4 8 -6 8 -7 -3z"/>
<path d="M979 118 c-2 -25 3 -53 11 -62 5 -5 6 1 3 14 -3 12 -1 25 4 29 7 4 6
11 -3 19 -11 10 -14 10 -15 0z"/>
<path d="M1515 120 c-4 -6 1 -7 11 -3 13 5 16 3 11 -10 -3 -9 -2 -19 4 -22 14
-9 -1 -27 -18 -21 -8 3 -11 1 -8 -4 8 -14 32 -13 37 2 13 39 -18 88 -37 58z"/>
<path d="M1574 115 c-4 -8 -1 -22 6 -30 6 -8 9 -19 5 -25 -3 -5 -4 -10 -1 -10
10 0 33 55 29 68 -6 17 -32 15 -39 -3z m28 -10 c0 -5 -5 -11 -11 -13 -6 -2
-11 4 -11 13 0 9 5 15 11 13 6 -2 11 -8 11 -13z"/>
<path d="M1637 123 c-12 -12 -7 -33 7 -33 26 0 28 -20 4 -29 -15 -7 -17 -10
-7 -10 9 -1 22 6 30 15 11 14 13 14 21 0 21 -38 57 0 43 44 -9 28 -32 25 -49
-7 -8 -16 -15 -22 -16 -15 0 6 -7 12 -15 12 -21 0 -19 18 3 23 14 4 14 5 1 6
-9 0 -19 -2 -22 -6z m88 -33 c0 -27 -20 -38 -28 -15 -8 20 3 47 17 42 6 -2 11
-14 11 -27z"/>
<path d="M1755 120 c-4 -6 1 -7 11 -3 13 5 16 3 11 -10 -3 -9 -2 -19 4 -22 14
-9 -1 -27 -18 -21 -8 3 -11 1 -8 -4 9 -14 32 -12 38 3 14 38 -19 88 -38 57z"/>
<path d="M1814 115 c-4 -8 -1 -22 6 -30 6 -8 9 -19 5 -25 -3 -5 -4 -10 -1 -10
10 0 33 55 29 68 -6 17 -32 15 -39 -3z m28 -10 c0 -5 -5 -11 -11 -13 -6 -2
-11 4 -11 13 0 9 5 15 11 13 6 -2 11 -8 11 -13z"/>
<path d="M1880 106 c-15 -29 -8 -56 15 -56 23 0 31 31 12 45 -12 9 -14 14 -5
23 7 7 8 12 2 12 -6 0 -16 -11 -24 -24z m28 -28 c-6 -18 -28 -21 -28 -4 0 9 7
16 16 16 9 0 14 -5 12 -12z"/>
<path d="M1937 123 c-12 -12 -7 -33 7 -33 26 0 28 -20 4 -29 -14 -6 -17 -10
-7 -10 8 -1 20 4 26 10 14 14 6 39 -13 39 -20 0 -17 18 4 23 14 4 14 5 1 6 -9
0 -19 -2 -22 -6z"/>
<path d="M1995 120 c-4 -6 1 -7 11 -3 13 5 16 3 11 -10 -3 -9 -2 -19 4 -22 14
-9 -1 -27 -18 -21 -8 3 -11 1 -8 -4 8 -14 32 -13 37 2 13 39 -18 88 -37 58z"/>
<path d="M580 93 c0 -10 4 -14 8 -8 4 6 11 13 16 18 5 4 2 7 -7 7 -10 0 -17
-8 -17 -17z"/>
<path d="M691 83 c-1 -27 3 -33 19 -33 16 0 20 6 19 33 -2 30 -2 30 -6 5 -6
-36 -20 -36 -26 0 -4 25 -4 25 -6 -5z"/>
<path d="M837 104 c-13 -13 -7 -24 14 -24 11 0 19 5 17 12 -5 14 -22 21 -31
12z"/>
<path d="M891 78 c2 -28 2 -29 6 -8 3 14 10 28 17 32 7 5 5 8 -6 8 -14 0 -18
-8 -17 -32z"/>
<path d="M930 93 c0 -10 4 -14 8 -8 4 6 11 13 16 18 5 4 2 7 -7 7 -10 0 -17
-8 -17 -17z"/>
<path d="M1024 95 c-8 -21 2 -45 20 -45 19 0 29 29 15 46 -15 18 -28 18 -35
-1z m31 -15 c0 -7 -6 -15 -12 -17 -8 -3 -13 4 -13 17 0 13 5 20 13 18 6 -3 12
-11 12 -18z"/>
<path d="M1084 95 c-8 -20 2 -45 18 -44 10 0 10 2 1 6 -7 2 -13 13 -13 23 0
10 6 21 13 23 9 4 9 6 -1 6 -7 1 -15 -6 -18 -14z"/>
<path d="M1224 95 c-8 -20 2 -45 18 -44 10 0 10 2 1 6 -7 2 -13 13 -13 23 0
10 6 21 13 23 9 4 9 6 -1 6 -7 1 -15 -6 -18 -14z"/>
<path d="M1274 95 c-8 -21 2 -45 20 -45 7 0 16 7 20 15 8 21 -3 45 -20 45 -8
0 -17 -7 -20 -15z m31 -15 c0 -7 -6 -15 -12 -17 -8 -3 -13 4 -13 17 0 13 5 20
13 18 6 -3 12 -11 12 -18z"/>
<path d="M1331 77 c2 -31 2 -31 6 -4 2 15 8 27 13 27 5 0 11 -12 13 -27 l4
-28 2 28 c0 15 5 27 10 27 5 0 12 -12 14 -27 4 -27 4 -27 6 4 1 29 -1 31 -34
31 -33 0 -35 -2 -34 -31z"/>
<path d="M592 65 c-11 -12 -10 -15 3 -15 8 0 15 7 15 15 0 18 -2 18 -18 0z"/>
<path d="M942 65 c-11 -12 -10 -15 3 -15 8 0 15 7 15 15 0 18 -2 18 -18 0z"/>
<path d="M1150 71 c0 -5 5 -13 10 -16 6 -3 10 -2 10 4 0 5 -4 13 -10 16 -5 3
-10 2 -10 -4z"/>
<path d="M838 58 c5 -5 16 -8 23 -6 8 3 3 7 -10 11 -17 4 -21 3 -13 -5z"/>
</g>
</svg>
